<?xml version="1.0" standalone="no"?><svg xmlns:xlink="http://www.w3.org/1999/xlink" xmlns="http://www.w3.org/2000/svg" viewBox="0 0 1000 545.4633855803183" preserveAspectRatio="xMaxYMax slice"><g transform="scale(1.5193966172153714)"><rect x="0" y="0" width="658.1666666666667" height="359" fill="#ffffff"/><circle cx="29.915" cy="29.915" r="29.915" fill="#f8d7c0"/><rect x="59.833333333333336" y="0" width="59.833333333333336" height="59.833333333333336" fill="#ffffff"/><circle cx="74.78999999999999" cy="14.96" r="14.96" fill="#afffbd"/><circle cx="104.71000000000001" cy="14.96" r="14.96" fill="#fef7f2"/><circle cx="74.78999999999999" cy="44.88" r="14.96" fill="#fefbf8"/><circle cx="104.71000000000001" cy="44.88" r="14.96" fill="#fffdfb"/><circle cx="149.585" cy="29.915" r="29.915" fill="#f9ddc9"/><circle cx="209.415" cy="29.915" r="29.915" fill="#b5ffc1"/><circle cx="269.245" cy="29.915" r="29.915" fill="#f8d8c2"/><circle cx="329.08500000000004" cy="29.915" r="29.915" fill="#c2ffcc"/><rect x="359" y="0" width="59.833333333333336" height="59.833333333333336" fill="#ffffff"/><circle cx="373.96" cy="14.96" r="14.96" fill="#ddffe3"/><circle cx="403.88" cy="14.96" r="14.96" fill="#fef7f3"/><circle cx="373.96" cy="44.88" r="14.96" fill="#f8d6bf"/><circle cx="403.88" cy="44.88" r="14.96" fill="#fbe7d9"/><circle cx="448.745" cy="29.915" r="29.915" fill="#fffffe"/><rect x="478.6666666666667" y="0" width="59.833333333333336" height="59.833333333333336" fill="#ffffff"/><circle cx="493.63" cy="14.96" r="14.96" fill="#fefaf8"/><circle cx="523.54" cy="14.96" r="14.96" fill="#fffffe"/><circle cx="493.63" cy="44.88" r="14.96" fill="#fcebdf"/><circle cx="523.54" cy="44.88" r="14.96" fill="#fefcfa"/><rect x="538.5" y="0" width="59.833333333333336" height="59.833333333333336" fill="#ffffff"/><circle cx="553.46" cy="14.96" r="14.96" fill="#fdf1e9"/><circle cx="583.38" cy="14.96" r="14.96" fill="#f9ddc9"/><circle cx="553.46" cy="44.88" r="14.96" fill="#fcebdf"/><circle cx="583.38" cy="44.88" r="14.96" fill="#fae1cf"/><circle cx="628.245" cy="29.915" r="29.915" fill="#ecffef"/><circle cx="29.915" cy="89.745" r="29.915" fill="#fae2d2"/><rect x="59.833333333333336" y="59.833333333333336" width="59.833333333333336" height="59.833333333333336" fill="#ffffff"/><circle cx="74.78999999999999" cy="74.78999999999999" r="14.96" fill="#f6fff8"/><circle cx="104.71000000000001" cy="74.78999999999999" r="14.96" fill="#c0ffcb"/><circle cx="74.78999999999999" cy="104.71000000000001" r="14.96" fill="#fdf0e8"/><circle cx="104.71000000000001" cy="104.71000000000001" r="14.96" fill="#a4ffb4"/><rect x="119.66666666666667" y="59.833333333333336" width="59.833333333333336" height="59.833333333333336" fill="#ffffff"/><circle cx="134.63" cy="74.78999999999999" r="14.96" fill="#a0ffb0"/><circle cx="164.54000000000002" cy="74.78999999999999" r="14.96" fill="#99ffaa"/><circle cx="134.63" cy="104.71000000000001" r="14.96" fill="#fae2d0"/><circle cx="164.54000000000002" cy="104.71000000000001" r="14.96" fill="#fae4d5"/><circle cx="209.415" cy="89.745" r="29.915" fill="#9dffae"/><rect x="239.33333333333334" y="59.833333333333336" width="59.833333333333336" height="59.833333333333336" fill="#ffffff"/><circle cx="254.29000000000002" cy="74.78999999999999" r="14.96" fill="#fffffe"/><circle cx="284.21" cy="74.78999999999999" r="14.96" fill="#f9fffa"/><circle cx="254.29000000000002" cy="104.71000000000001" r="14.96" fill="#fefbf9"/><circle cx="284.21" cy="104.71000000000001" r="14.96" fill="#a0ffb0"/><rect x="299.1666666666667" y="59.833333333333336" width="59.833333333333336" height="59.833333333333336" fill="#ffffff"/><circle cx="314.13" cy="74.78999999999999" r="14.96" fill="#f9deca"/><circle cx="344.03999999999996" cy="74.78999999999999" r="14.96" fill="#b2ffbf"/><circle cx="314.13" cy="104.71000000000001" r="14.96" fill="#bfffca"/><circle cx="344.03999999999996" cy="104.71000000000001" r="14.96" fill="#94ffa6"/><rect x="359" y="59.833333333333336" width="59.833333333333336" height="59.833333333333336" fill="#ffffff"/><circle cx="373.96" cy="74.78999999999999" r="14.96" fill="#f8fff9"/><circle cx="403.88" cy="74.78999999999999" r="14.96" fill="#fceee5"/><circle cx="373.96" cy="104.71000000000001" r="14.96" fill="#fae3d3"/><circle cx="403.88" cy="104.71000000000001" r="14.96" fill="#fdf5ef"/><circle cx="448.745" cy="89.745" r="29.915" fill="#fffefd"/><rect x="478.6666666666667" y="59.833333333333336" width="59.833333333333336" height="59.833333333333336" fill="#ffffff"/><circle cx="493.63" cy="74.78999999999999" r="14.96" fill="#fef9f6"/><circle cx="523.54" cy="74.78999999999999" r="14.96" fill="#99ffaa"/><circle cx="493.63" cy="104.71000000000001" r="14.96" fill="#9bffac"/><circle cx="523.54" cy="104.71000000000001" r="14.96" fill="#9affab"/><circle cx="568.415" cy="89.745" r="29.915" fill="#fefaf7"/><circle cx="628.245" cy="89.745" r="29.915" fill="#fae4d3"/><circle cx="29.915" cy="149.585" r="29.915" fill="#b2ffbf"/><rect x="59.833333333333336" y="119.66666666666667" width="59.833333333333336" height="59.833333333333336" fill="#ffffff"/><circle cx="74.78999999999999" cy="134.63" r="14.96" fill="#b6ffc2"/><circle cx="104.71000000000001" cy="134.63" r="14.96" fill="#f9dac5"/><circle cx="74.78999999999999" cy="164.54000000000002" r="14.96" fill="#9dffae"/><circle cx="104.71000000000001" cy="164.54000000000002" r="14.96" fill="#fffcfb"/><circle cx="149.585" cy="149.585" r="29.915" fill="#95ffa7"/><rect x="179.5" y="119.66666666666667" width="59.833333333333336" height="59.833333333333336" fill="#ffffff"/><circle cx="194.46" cy="134.63" r="14.96" fill="#fcece1"/><circle cx="224.38" cy="134.63" r="14.96" fill="#b0ffbe"/><circle cx="194.46" cy="164.54000000000002" r="14.96" fill="#f6fff8"/><circle cx="224.38" cy="164.54000000000002" r="14.96" fill="#fdf4ee"/><rect x="239.33333333333334" y="119.66666666666667" width="59.833333333333336" height="59.833333333333336" fill="#ffffff"/><circle cx="254.29000000000002" cy="134.63" r="14.96" fill="#cfffd7"/><circle cx="284.21" cy="134.63" r="14.96" fill="#fcece1"/><circle cx="254.29000000000002" cy="164.54000000000002" r="14.96" fill="#fae3d2"/><circle cx="284.21" cy="164.54000000000002" r="14.96" fill="#fbe9dc"/><circle cx="329.08500000000004" cy="149.585" r="29.915" fill="#a7ffb6"/><rect x="359" y="119.66666666666667" width="59.833333333333336" height="59.833333333333336" fill="#ffffff"/><circle cx="373.96" cy="134.63" r="14.96" fill="#fbeade"/><circle cx="403.88" cy="134.63" r="14.96" fill="#fbeade"/><circle cx="373.96" cy="164.54000000000002" r="14.96" fill="#a4ffb4"/><circle cx="403.88" cy="164.54000000000002" r="14.96" fill="#fef8f3"/><rect x="418.83333333333337" y="119.66666666666667" width="59.833333333333336" height="59.833333333333336" fill="#ffffff"/><circle cx="433.78999999999996" cy="134.63" r="14.96" fill="#f5fff6"/><circle cx="463.71" cy="134.63" r="14.96" fill="#92ffa4"/><circle cx="433.78999999999996" cy="164.54000000000002" r="14.96" fill="#fbe5d6"/><circle cx="463.71" cy="164.54000000000002" r="14.96" fill="#fae2d1"/><circle cx="508.58500000000004" cy="149.585" r="29.915" fill="#b3ffbf"/><circle cx="568.415" cy="149.585" r="29.915" fill="#fdf5f0"/><rect x="598.3333333333334" y="119.66666666666667" width="59.833333333333336" height="59.833333333333336" fill="#ffffff"/><circle cx="613.2900000000001" cy="134.63" r="14.96" fill="#b2ffbf"/><circle cx="643.21" cy="134.63" r="14.96" fill="#fbe6d8"/><circle cx="613.2900000000001" cy="164.54000000000002" r="14.96" fill="#ffffff"/><circle cx="643.21" cy="164.54000000000002" r="14.96" fill="#fef9f6"/><circle cx="29.915" cy="209.415" r="29.915" fill="#a7ffb6"/><rect x="59.833333333333336" y="179.5" width="59.833333333333336" height="59.833333333333336" fill="#ffffff"/><circle cx="74.78999999999999" cy="194.46" r="14.96" fill="#d3ffdb"/><circle cx="104.71000000000001" cy="194.46" r="14.96" fill="#f9dcc8"/><circle cx="74.78999999999999" cy="224.38" r="14.96" fill="#9fffaf"/><circle cx="104.71000000000001" cy="224.38" r="14.96" fill="#adffbb"/><circle cx="149.585" cy="209.415" r="29.915" fill="#fdf6f0"/><circle cx="209.415" cy="209.415" r="29.915" fill="#fbe6d7"/><circle cx="269.245" cy="209.415" r="29.915" fill="#d9ffe0"/><circle cx="329.08500000000004" cy="209.415" r="29.915" fill="#f8d7c0"/><circle cx="388.915" cy="209.415" r="29.915" fill="#c6ffd0"/><rect x="418.83333333333337" y="179.5" width="59.833333333333336" height="59.833333333333336" fill="#ffffff"/><circle cx="433.78999999999996" cy="194.46" r="14.96" fill="#fae1cf"/><circle cx="463.71" cy="194.46" r="14.96" fill="#aeffbc"/><circle cx="433.78999999999996" cy="224.38" r="14.96" fill="#fdf4ed"/><circle cx="463.71" cy="224.38" r="14.96" fill="#e9ffed"/><rect x="478.6666666666667" y="179.5" width="59.833333333333336" height="59.833333333333336" fill="#ffffff"/><circle cx="493.63" cy="194.46" r="14.96" fill="#fffffe"/><circle cx="523.54" cy="194.46" r="14.96" fill="#fae2d2"/><circle cx="493.63" cy="224.38" r="14.96" fill="#bdffc8"/><circle cx="523.54" cy="224.38" r="14.96" fill="#9bffac"/><rect x="538.5" y="179.5" width="59.833333333333336" height="59.833333333333336" fill="#ffffff"/><circle cx="553.46" cy="194.46" r="14.96" fill="#fbeadd"/><circle cx="583.38" cy="194.46" r="14.96" fill="#fbe9dc"/><circle cx="553.46" cy="224.38" r="14.96" fill="#fdf3ec"/><circle cx="583.38" cy="224.38" r="14.96" fill="#edfff0"/><circle cx="628.245" cy="209.415" r="29.915" fill="#fcfffc"/><circle cx="29.915" cy="269.245" r="29.915" fill="#d5ffdc"/><rect x="59.833333333333336" y="239.33333333333334" width="59.833333333333336" height="59.833333333333336" fill="#ffffff"/><circle cx="74.78999999999999" cy="254.29000000000002" r="14.96" fill="#f9deca"/><circle cx="104.71000000000001" cy="254.29000000000002" r="14.96" fill="#fffcfa"/><circle cx="74.78999999999999" cy="284.21" r="14.96" fill="#fafffb"/><circle cx="104.71000000000001" cy="284.21" r="14.96" fill="#e3ffe7"/><circle cx="149.585" cy="269.245" r="29.915" fill="#a1ffb1"/><rect x="179.5" y="239.33333333333334" width="59.833333333333336" height="59.833333333333336" fill="#ffffff"/><circle cx="194.46" cy="254.29000000000002" r="14.96" fill="#fae3d3"/><circle cx="224.38" cy="254.29000000000002" r="14.96" fill="#9fffaf"/><circle cx="194.46" cy="284.21" r="14.96" fill="#cbffd4"/><circle cx="224.38" cy="284.21" r="14.96" fill="#fbe5d5"/><circle cx="269.245" cy="269.245" r="29.915" fill="#fefaf8"/><circle cx="329.08500000000004" cy="269.245" r="29.915" fill="#fbe9dc"/><rect x="359" y="239.33333333333334" width="59.833333333333336" height="59.833333333333336" fill="#ffffff"/><circle cx="373.96" cy="254.29000000000002" r="14.96" fill="#f6fff7"/><circle cx="403.88" cy="254.29000000000002" r="14.96" fill="#c7ffd0"/><circle cx="373.96" cy="284.21" r="14.96" fill="#fdf1ea"/><circle cx="403.88" cy="284.21" r="14.96" fill="#9cffad"/><circle cx="448.745" cy="269.245" r="29.915" fill="#edfff0"/><rect x="478.6666666666667" y="239.33333333333334" width="59.833333333333336" height="59.833333333333336" fill="#ffffff"/><circle cx="493.63" cy="254.29000000000002" r="14.96" fill="#acffba"/><circle cx="523.54" cy="254.29000000000002" r="14.96" fill="#fcefe6"/><circle cx="493.63" cy="284.21" r="14.96" fill="#d6ffdd"/><circle cx="523.54" cy="284.21" r="14.96" fill="#e6ffea"/><circle cx="568.415" cy="269.245" r="29.915" fill="#b3ffc0"/><circle cx="628.245" cy="269.245" r="29.915" fill="#fadfcc"/><circle cx="29.915" cy="329.08500000000004" r="29.915" fill="#bdffc8"/><rect x="59.833333333333336" y="299.1666666666667" width="59.833333333333336" height="59.833333333333336" fill="#ffffff"/><circle cx="74.78999999999999" cy="314.13" r="14.96" fill="#f2fff4"/><circle cx="104.71000000000001" cy="314.13" r="14.96" fill="#98ffa9"/><circle cx="74.78999999999999" cy="344.03999999999996" r="14.96" fill="#e6ffeb"/><circle cx="104.71000000000001" cy="344.03999999999996" r="14.96" fill="#fbe8db"/><rect x="119.66666666666667" y="299.1666666666667" width="59.833333333333336" height="59.833333333333336" fill="#ffffff"/><circle cx="134.63" cy="314.13" r="14.96" fill="#caffd3"/><circle cx="164.54000000000002" cy="314.13" r="14.96" fill="#fdf5ef"/><circle cx="134.63" cy="344.03999999999996" r="14.96" fill="#e4ffe9"/><circle cx="164.54000000000002" cy="344.03999999999996" r="14.96" fill="#a1ffb1"/><rect x="179.5" y="299.1666666666667" width="59.833333333333336" height="59.833333333333336" fill="#ffffff"/><circle cx="194.46" cy="314.13" r="14.96" fill="#a0ffb0"/><circle cx="224.38" cy="314.13" r="14.96" fill="#fafffb"/><circle cx="194.46" cy="344.03999999999996" r="14.96" fill="#fdf5ef"/><circle cx="224.38" cy="344.03999999999996" r="14.96" fill="#fef9f6"/><rect x="239.33333333333334" y="299.1666666666667" width="59.833333333333336" height="59.833333333333336" fill="#ffffff"/><circle cx="254.29000000000002" cy="314.13" r="14.96" fill="#acffba"/><circle cx="284.21" cy="314.13" r="14.96" fill="#eefff1"/><circle cx="254.29000000000002" cy="344.03999999999996" r="14.96" fill="#92ffa5"/><circle cx="284.21" cy="344.03999999999996" r="14.96" fill="#f9ddc9"/><circle cx="329.08500000000004" cy="329.08500000000004" r="29.915" fill="#f1fff4"/><rect x="359" y="299.1666666666667" width="59.833333333333336" height="59.833333333333336" fill="#ffffff"/><circle cx="373.96" cy="314.13" r="14.96" fill="#effff2"/><circle cx="403.88" cy="314.13" r="14.96" fill="#b1ffbe"/><circle cx="373.96" cy="344.03999999999996" r="14.96" fill="#b4ffc1"/><circle cx="403.88" cy="344.03999999999996" r="14.96" fill="#fef8f4"/><rect x="418.83333333333337" y="299.1666666666667" width="59.833333333333336" height="59.833333333333336" fill="#ffffff"/><circle cx="433.78999999999996" cy="314.13" r="14.96" fill="#fefaf8"/><circle cx="463.71" cy="314.13" r="14.96" fill="#aaffb8"/><circle cx="433.78999999999996" cy="344.03999999999996" r="14.96" fill="#fae1cf"/><circle cx="463.71" cy="344.03999999999996" r="14.96" fill="#fffdfc"/><circle cx="508.58500000000004" cy="329.08500000000004" r="29.915" fill="#cbffd3"/><circle cx="568.415" cy="329.08500000000004" r="29.915" fill="#d8ffdf"/><rect x="598.3333333333334" y="299.1666666666667" width="59.833333333333336" height="59.833333333333336" fill="#ffffff"/><circle cx="613.2900000000001" cy="314.13" r="14.96" fill="#fdf1ea"/><circle cx="643.21" cy="314.13" r="14.96" fill="#e1ffe6"/><circle cx="613.2900000000001" cy="344.03999999999996" r="14.96" fill="#fdf5f0"/><circle cx="643.21" cy="344.03999999999996" r="14.96" fill="#fffdfc"/></g></svg>